inDegrees=no
num_controls=7
num_derivatives=13
num_iterations=126
num_multipliers=7
num_parameters=0
num_slacks=7
num_states=26
objective=0.517362
objective_accelerations=0.038995
objective_balance=0.002185
objective_effort=0.043002
objective_height=0.421502
objective_ligament=0.011678
solver_duration=1641.407862
status=Solve_Succeeded
success=true
DataType=double
version=3
OpenSimVersion=4.5
endheader
time	/jointset/ground_pelvis/pelvis_tilt/value	/jointset/ground_pelvis/pelvis_tx/value	/jointset/ground_pelvis/pelvis_ty/value	/jointset/hip_l/hip_flexion_l/value	/jointset/hip_l/hip_adduction_l/value	/jointset/hip_l/hip_rotation_l/value	/jointset/back/lumbar_extension/value	/jointset/patellofemoral_l/patellar_flexion_l/value	/jointset/knee_l/knee_flexion_l/value	/jointset/knee_l/knee_adduction_l/value	/jointset/knee_l/knee_rotation_l/value	/jointset/ankle_l/ankle_angle_l/value	/jointset/subtalar_l/subtalar_angle_l/value	/jointset/ground_pelvis/pelvis_tilt/speed	/jointset/ground_pelvis/pelvis_tx/speed	/jointset/ground_pelvis/pelvis_ty/speed	/jointset/hip_l/hip_flexion_l/speed	/jointset/hip_l/hip_adduction_l/speed	/jointset/hip_l/hip_rotation_l/speed	/jointset/back/lumbar_extension/speed	/jointset/patellofemoral_l/patellar_flexion_l/speed	/jointset/knee_l/knee_flexion_l/speed	/jointset/knee_l/knee_adduction_l/speed	/jointset/knee_l/knee_rotation_l/speed	/jointset/ankle_l/ankle_angle_l/speed	/jointset/subtalar_l/subtalar_angle_l/speed	/forceset/tau_hip_flexion_l	/forceset/tau_hip_adduction_l	/forceset/tau_hip_rotation_l	/forceset/tau_knee_flexion_l	/forceset/tau_ankle_angle_l	/forceset/tau_subtalar_angle_l	/forceset/tau_lumbar_extension	lambda_cid13_p0	lambda_cid13_p1	lambda_cid13_p2	lambda_cid13_p3	lambda_cid13_p4	lambda_cid13_p5	lambda_cid14_p0	/jointset/ground_pelvis/pelvis_tilt/accel	/jointset/ground_pelvis/pelvis_tx/accel	/jointset/ground_pelvis/pelvis_ty/accel	/jointset/hip_l/hip_flexion_l/accel	/jointset/hip_l/hip_adduction_l/accel	/jointset/hip_l/hip_rotation_l/accel	/jointset/back/lumbar_extension/accel	/jointset/patellofemoral_l/patellar_flexion_l/accel	/jointset/knee_l/knee_flexion_l/accel	/jointset/knee_l/knee_adduction_l/accel	/jointset/knee_l/knee_rotation_l/accel	/jointset/ankle_l/ankle_angle_l/accel	/jointset/subtalar_l/subtalar_angle_l/accel	gamma_cid13_p0	gamma_cid13_p1	gamma_cid13_p2	gamma_cid13_p3	gamma_cid13_p4	gamma_cid13_p5	gamma_cid14_p0
0.5	-0.1159930819476415	-0.05400694217352813	0.8275192236871793	0.8761260809889068	-0.3235678847329641	-0.1264856775439435	-0.7756600930980151	0.776624970713596	0.7766249707137125	-0.1103185083955454	-0.1745117184744124	0.06988844707337509	-0.007107665744110358	-0.1945137756306279	-0.2047907049072496	-0.3287581333741478	1.456314511726253	-0.04172404301049227	0.4491304982657614	-0.8415317609716623	1.4096622220715	1.409662222071351	0.1302019343953461	0.0001509284677492103	0.2373443649971651	0.02981569466548328	-0.2769317139614865	0.01943197263299172	-0.003156328142256374	-0.2096138312971644	0.1135522001089503	0.05029664356209561	0.3262115237590587	-8.011575224990976	-21.96092010679002	4.782905703375397	-9.160949487505045	-702.4873044722511	-78.26932461337559	-15.32520879019022	0.2665950242647667	0.6280526367480487	-0.119015889519961	-1.371325129340089	0.2152645684323262	-0.3272035380298599	1.635472955549846	-1.051106778069475	-1.051106778069432	-0.2795251108639719	0.02857051564171402	0.00877534808756792	0.2385659219189616	-3.337770183769794e-08	-5.204788898883805e-07	-5.790081148417199e-08	-7.428744534790906e-08	-6.027731385458916e-08	-5.418177475464348e-08	-6.64549757397036e-08
0.51	-0.1179246297557273	-0.05602333132582515	0.824226400703873	0.8906185439352537	-0.3239746727291457	-0.1220123543395116	-0.7839927065074354	0.7906668790909923	0.7906668790910257	-0.1090305165999145	-0.1745099457505926	0.07226168844593399	-0.006798092306870489	-0.191764914595455	-0.1984761734662505	-0.3297330994775918	1.441971821368709	-0.03963235890856941	0.4454560853146777	-0.8249022989483726	1.398511362821625	1.398511362821482	0.1274071171522656	0.0001887563897162162	0.237257768735528	0.03208766250383031	-0.2832529655885347	0.01979600648626685	-0.003354019696934544	-0.2120278978813887	0.1136915239776741	0.05073951412904256	0.3323020797791191	-8.177886949322563	-22.08175088460564	4.75375222229745	-9.181547570716564	-706.262488684088	-78.20233997741528	-14.81537449265869	0.2836605913108554	0.6347816859951687	-0.07574375803775818	-1.496680857241673	0.2063714796603421	-0.3993257608344481	1.689976120373521	-1.178275991481647	-1.178275991480807	-0.2779480789746135	-0.01083831355501593	-0.02431656174074626	0.2198982437975782	-5.336473438237581e-08	-4.175471776463483e-07	1.046225347576327e-07	-4.500164946846985e-08	-7.275765456109237e-08	-4.645521162534046e-08	-7.391572218901578e-08
0.52	-0.1198277631638265	-0.05797624950606861	0.8209260267020763	0.9049613920043716	-0.324360493654586	-0.1175781283820297	-0.7921563666376913	0.804591038777295	0.8045910387772233	-0.1077701705863408	-0.1745082401963306	0.07463267596618686	-0.006466121985446122	-0.1888308956335873	-0.192096510496538	-0.330268337072262	1.426391536279952	-0.03753062886313081	0.4413110488761274	-0.8077411051388735	1.386112483850344	1.386112483850205	0.1246727779914083	0.0001374945505119551	0.2368935945358353	0.03429507150237716	-0.2895742172155746	0.02016004033955026	-0.003551711251840208	-0.2144419644655995	0.1138308478464017	0.05118238469599897	0.3383926357991849	-8.347350047907966	-22.2029417468191	4.725697706255259	-9.22605147686364	-710.1078461454598	-78.15419502808446	-14.30266588287636	0.3036266096038158	0.6410789424906671	-0.03107018776521159	-1.618844075582844	0.2172737571354628	-0.4213282355231946	1.7418193127918	-1.300710722350902	-1.300710722351193	-0.2674294944193153	0.01075256340746003	-0.04674023952361084	0.225654153958904	-9.376845410108401e-08	-2.47794192073041e-07	4.128786436526922e-07	1.080389648082372e-08	-1.050120007001824e-07	-3.539975694698817e-08	-9.096921315753578e-08
0.53	-0.1217006721271284	-0.05986509566435057	0.8176225178935153	0.9191422697432299	-0.3247254838472759	-0.1131861126469235	-0.8001457955076866	0.8183849078781301	0.8183849078783217	-0.1065382484042382	-0.174506487415979	0.07699855305219823	-0.006112710159185918	-0.1857252917726475	-0.1856671214868912	-0.3303577708962978	1.40958406819522	-0.03547158570307766	0.4370328465815346	-0.7900589472431386	1.372452716696354	1.372452716696636	0.1217027206937461	0.0002075924397088675	0.2362326775759546	0.03636864132335531	-0.2957958991786213	0.02063250609541764	-0.003756578307085413	-0.2168253736474944	0.1138476603441565	0.05142707860936335	0.3443707115104145	-8.564653602573369	-22.22697662401434	4.679056645708076	-9.161264426459985	-713.941522942877	-77.92893845700981	-13.78766939704404	0.3178560228747839	0.6447168541718064	0.0134436910547385	-1.741704714099229	0.199534252352341	-0.4400480113540866	1.794272270574471	-1.429882669573418	-1.429882669510272	-0.3131440567486771	0.004433783543647164	-0.08314256609053021	0.1953687673251485	-1.126740777492021e-07	-1.38166571078869e-07	5.768683419246846e-07	4.194700467326649e-08	-1.172807724099543e-07	-2.326227865129999e-08	-9.743498513368639e-08
0.54	-0.1235417593021125	-0.06168947833774229	0.8143203794808694	0.9331490714934055	-0.3250700206769805	-0.1088386752917542	-0.8079558311502021	0.8320359247158928	0.8320359247163582	-0.1053362968369715	-0.1745041745803629	0.07935634594023665	-0.005739130560484327	-0.1824665379702731	-0.1792038135184925	-0.3299942578892124	1.391576338543252	-0.03343995626654007	0.4323953728898725	-0.7718624596429889	1.357542031236348	1.357542031237051	0.1186786550237227	0.0002495056036190331	0.2352767549412652	0.03832862599064767	-0.3020175811416683	0.02110497185127541	-0.003961445362287788	-0.2192087828293875	0.1138644728419106	0.05167177252271667	0.350348787221645	-8.785482482060408	-22.25116272647406	4.633317933653494	-9.125460297957382	-717.8540328933335	-77.73916590602721	-13.27110879414723	0.3342565978908146	0.6478627342409887	0.05951917845903154	-1.858896389030088	0.2117910124323587	-0.4931825149370518	1.844685253674814	-1.550894383554368	-1.550894383554449	-0.2782311688915202	0.005115618350104425	-0.1057413744854191	0.2029371232217234	-1.077945738298586e-07	-9.506063004459209e-08	5.812441390817922e-07	4.58040115177038e-08	-1.074378447511184e-07	-9.927667842814651e-09	-9.218668503317283e-08
